<svg width="0" height="0" class="hidden">
  <symbol xmlns="http://www.w3.org/2000/svg" viewBox="0 0 30 30" id="instagram">
    <path d="M 9.9980469 3 C 6.1390469 3 3 6.1419531 3 10.001953 L 3 20.001953 C 3 23.860953 6.1419531 27 10.001953 27 L 20.001953 27 C 23.860953 27 27 23.858047 27 19.998047 L 27 9.9980469 C 27 6.1390469 23.858047 3 19.998047 3 L 9.9980469 3 z M 22 7 C 22.552 7 23 7.448 23 8 C 23 8.552 22.552 9 22 9 C 21.448 9 21 8.552 21 8 C 21 7.448 21.448 7 22 7 z M 15 9 C 18.309 9 21 11.691 21 15 C 21 18.309 18.309 21 15 21 C 11.691 21 9 18.309 9 15 C 9 11.691 11.691 9 15 9 z M 15 11 A 4 4 0 0 0 11 15 A 4 4 0 0 0 15 19 A 4 4 0 0 0 19 15 A 4 4 0 0 0 15 11 z"></path>
  </symbol>
  <symbol xmlns="http://www.w3.org/2000/svg" viewBox="0 0 30 30" id="facebook">
    <path d="M15,3C8.373,3,3,8.373,3,15c0,6.016,4.432,10.984,10.206,11.852V18.18h-2.969v-3.154h2.969v-2.099c0-3.475,1.693-5,4.581-5 c1.383,0,2.115,0.103,2.461,0.149v2.753h-1.97c-1.226,0-1.654,1.163-1.654,2.473v1.724h3.593L19.73,18.18h-3.106v8.697 C22.481,26.083,27,21.075,27,15C27,8.373,21.627,3,15,3z"></path>
  </symbol>
  <symbol xmlns="http://www.w3.org/2000/svg" viewBox="0 0 30 30" id="twitter">
    <path d="M28,6.937c-0.957,0.425-1.985,0.711-3.064,0.84c1.102-0.66,1.947-1.705,2.345-2.951c-1.03,0.611-2.172,1.055-3.388,1.295 c-0.973-1.037-2.359-1.685-3.893-1.685c-2.946,0-5.334,2.389-5.334,5.334c0,0.418,0.048,0.826,0.138,1.215 c-4.433-0.222-8.363-2.346-10.995-5.574C3.351,6.199,3.088,7.115,3.088,8.094c0,1.85,0.941,3.483,2.372,4.439 c-0.874-0.028-1.697-0.268-2.416-0.667c0,0.023,0,0.044,0,0.067c0,2.585,1.838,4.741,4.279,5.23 c-0.447,0.122-0.919,0.187-1.406,0.187c-0.343,0-0.678-0.034-1.003-0.095c0.679,2.119,2.649,3.662,4.983,3.705 c-1.825,1.431-4.125,2.284-6.625,2.284c-0.43,0-0.855-0.025-1.273-0.075c2.361,1.513,5.164,2.396,8.177,2.396 c9.812,0,15.176-8.128,15.176-15.177c0-0.231-0.005-0.461-0.015-0.69C26.38,8.945,27.285,8.006,28,6.937z"></path>
  </symbol>
  <symbol fill="none" xmlns="http://www.w3.org/2000/svg" viewBox="0 0 73 72" id="anxiety">
    <g clip-path="url(#clip0_3591_640)">
      <path fill-rule="evenodd" clip-rule="evenodd" d="M14.7599 16.3467C18.891 10.7632 24.822 7.58019 31.5467 5.8314C39.786 3.68875 48.6047 1.15216 55.8263 5.66724C64.7922 11.2729 73.4231 20.6471 71.9871 31.1156C70.5861 41.3286 57.948 44.0953 49.7056 50.2866C40.3624 57.3047 33.215 71.8051 21.9394 68.7086C10.6222 65.6008 8.86945 50.2567 7.27593 38.6347C6.15556 30.4636 9.85585 22.9748 14.7599 16.3467Z" fill="#BACFED"></path>
      <g clip-path="url(#clip1_3591_640)">
        <path d="M23.1065 34.4843C22.9955 33.1983 22.927 32.0053 22.7831 30.8206C22.5173 28.6292 23.1037 26.7748 24.7547 25.2682C25.0074 25.0237 25.1896 24.7157 25.2822 24.3766C25.9726 21.7983 27.495 19.5198 29.6131 17.8947C31.7312 16.2696 34.3266 15.3887 36.9967 15.3887C39.6668 15.3887 42.2622 16.2696 44.3803 17.8947C46.4985 19.5198 48.0208 21.7983 48.7112 24.3766C48.8044 24.7153 48.9876 25.0225 49.2414 25.2655C50.8856 26.772 51.4788 28.6306 51.2076 30.822C51.0623 32.0053 50.9952 33.1983 50.8883 34.4419C51.5569 34.2474 51.8899 34.5706 52.179 35.0856C53.3408 37.1551 54.5328 39.2081 55.7139 41.268C55.7993 41.3978 55.8723 41.5353 55.9317 41.6789C56.0687 42.0898 55.9701 42.4335 55.5823 42.6376C55.2165 42.8362 54.8836 42.7403 54.6233 42.424C54.5201 42.287 54.4285 42.1418 54.3492 41.9898C53.3207 40.1983 52.2927 38.4064 51.2651 36.6141C51.1815 36.4675 51.0911 36.3251 50.9911 36.1621L45.3736 38.7808C45.4229 38.9451 45.4627 39.1054 45.5188 39.2588C47.7156 45.2212 49.9087 51.1826 52.0981 57.1432C52.9353 59.4167 54.8123 60.6001 57.2525 60.4165C59.1775 60.2714 60.9066 58.699 61.3478 56.6528C61.6072 55.5035 61.4212 54.2985 60.8271 53.2809C60.3038 52.3605 59.7722 51.4442 59.2515 50.5238C58.9501 49.9897 59.0213 49.5651 59.4406 49.3227C59.8598 49.0803 60.2736 49.2282 60.5792 49.7541C61.1094 50.6704 61.6424 51.5853 62.1562 52.5111C64.4251 56.6022 61.8534 61.4999 57.195 61.9505C56.6195 62.0053 56.0372 61.9861 55.459 61.9861C43.1499 61.9861 30.8412 61.9907 18.533 61.9998C17.1163 61.9998 15.7353 61.9628 14.446 61.2972C13.6824 60.9077 13.0061 60.3671 12.4581 59.7081C11.9101 59.0492 11.5019 58.2857 11.2584 57.4641C11.0149 56.6425 10.9411 55.7799 11.0416 54.9289C11.1421 54.0779 11.4146 53.2563 11.8428 52.5139C14.3419 48.101 16.8807 43.7114 19.4031 39.3122C20.2251 37.8755 21.0595 36.4442 21.8693 34.9993C22.1378 34.5254 22.4639 34.2515 23.1065 34.4843ZM21.5172 60.4097H52.3694C51.9776 59.892 51.5624 59.4373 51.2583 58.9168C50.9601 58.3811 50.7089 57.8207 50.5074 57.2418C49.584 54.7646 48.6728 52.2829 47.774 49.7966C47.637 49.4309 47.4644 49.2665 47.0643 49.209C45.9509 49.0501 44.8429 48.8534 43.7404 48.6187C43.439 48.5543 43.2595 48.5735 43.0252 48.7789C41.3768 50.2755 39.2234 51.0939 36.9967 51.0703C34.699 51.0703 32.6918 50.2814 30.9545 48.7817C30.8167 48.6553 30.6359 48.5863 30.4489 48.5886C29.272 48.7803 28.1033 49.0268 26.925 49.2104C26.551 49.2693 26.3674 49.4076 26.2399 49.7582C25.3439 52.2441 24.4108 54.7189 23.5216 57.2075C23.0955 58.3854 22.5557 59.4715 21.5172 60.4097ZM44.4885 37.481C44.3378 36.6154 44.1076 35.8306 44.0857 35.0404C44.0542 33.8488 44.1556 32.6545 44.2227 31.4616C44.2679 30.685 43.9007 30.1769 43.1677 30.0468C40.2905 29.5373 37.6023 28.5128 35.3498 26.6734C34.188 25.7243 33.2659 25.7709 32.1479 26.468C31.9163 26.6118 31.667 26.7269 31.4382 26.8789C31.3199 26.9437 31.2243 27.0431 31.1641 27.1638C30.712 28.4147 30.2704 29.6683 29.8392 30.9247C29.7842 31.1191 29.7647 31.3219 29.7817 31.5232C29.8255 32.6477 29.9488 33.7749 29.9119 34.8966C29.8845 35.7526 29.657 36.6017 29.5173 37.4632C30.4763 38.0111 30.5161 38.1138 30.1229 39.1903C30.045 39.4345 29.9536 39.6741 29.8488 39.908C29.7009 40.2052 29.7515 40.4271 29.953 40.6928C33.481 45.3494 40.5207 45.3494 44.0268 40.6846C44.2131 40.4367 44.2679 40.2312 44.1432 39.945C43.9734 39.5546 43.8281 39.152 43.6938 38.7479C43.5198 38.2261 43.6596 37.9015 44.1446 37.6522C44.2734 37.5824 44.3953 37.5262 44.4885 37.481ZM23.012 36.1744C22.9621 36.2304 22.9163 36.2899 22.8749 36.3525C19.6141 42.04 16.355 47.7294 13.0978 53.4206C12.5237 54.4245 12.4045 55.5257 12.6484 56.6487C13.0937 58.6949 14.8214 60.2659 16.7464 60.411C19.1085 60.5891 21.0308 59.4523 21.8158 57.3253C24.0747 51.2306 26.3199 45.1298 28.5513 39.0232C28.573 38.9434 28.5876 38.8618 28.5952 38.7794L23.012 36.1744ZM46.7259 23.5014C45.9436 19.9788 41.129 16.8328 36.6556 16.9273C32.5781 17.0095 27.8485 20.3267 27.2634 23.5357C28.9007 23.3028 30.1133 23.9465 30.8805 25.2997C31.8725 24.9231 32.811 24.5711 33.7468 24.204C34.2359 24.015 34.6127 24.152 35.0005 24.493C36.5882 25.9023 38.432 26.9936 40.4316 27.7075C41.3167 28.0225 42.2319 28.2553 43.2335 28.5594C41.9196 25.7626 43.8747 23.1439 46.7314 23.5014H46.7259ZM45.9792 36.7702C47.0534 36.2717 48.0755 35.8115 49.0811 35.3116C49.2003 35.2527 49.2784 35.0185 49.2949 34.8555C49.4031 33.8201 49.4113 32.7682 49.5977 31.7478C50.0539 29.2593 49.4963 27.1788 47.3849 25.6394C47.3452 25.6092 47.3123 25.5682 47.274 25.5339C46.6204 24.9409 45.8011 24.8491 45.1119 25.3025C44.4227 25.7558 44.1734 26.5515 44.468 27.3788C44.6723 28.0117 44.9097 28.6334 45.1791 29.2415C45.7271 30.3906 45.8408 31.5616 45.6531 32.8175C45.4654 34.1227 45.501 35.4389 45.9847 36.7702H45.9792ZM28.017 36.7702C28.0841 36.5511 28.1321 36.4059 28.1732 36.2593C28.4979 35.0678 28.4801 33.857 28.3198 32.649C28.1828 31.5821 28.1978 30.5645 28.6856 29.5633C29.0268 28.8607 29.2611 28.1047 29.5227 27.3719C29.805 26.5735 29.5515 25.7681 28.9048 25.3271C28.2198 24.8628 27.3895 24.9286 26.7414 25.5147C26.3619 25.8571 26.0043 26.2256 25.6316 26.5776C24.6383 27.5144 24.1683 28.6635 24.2711 30.0249C24.3944 31.6684 24.5451 33.3243 24.6972 34.9733C24.7066 35.0438 24.7311 35.1114 24.7689 35.1717C24.8067 35.2319 24.857 35.2834 24.9164 35.3225C25.9303 35.8074 26.9497 36.273 28.0225 36.7716L28.017 36.7702ZM41.9058 47.6846L40.6303 45.0824C38.2504 45.9712 35.7499 45.9617 33.2728 45.044C33.1097 45.5138 32.9987 45.9822 32.7877 46.4054C32.5767 46.8286 32.2726 47.2272 32.0109 47.6381C35.0265 50.3718 39.5904 49.9678 41.9058 47.6846ZM27.0072 47.6928C28.0704 47.4778 29.0624 47.3847 29.9804 47.0656C31.0244 46.7026 31.5711 45.8425 31.6889 44.7208C31.7245 44.3811 31.6067 44.2195 31.3381 44.0237C30.7339 43.584 30.1694 43.0882 29.6022 42.5993C29.4198 42.4106 29.2522 42.2082 29.1007 41.9939C28.3801 43.9524 27.7197 45.7535 27.0072 47.6928ZM44.9639 42.1788C44.0994 42.8636 43.2623 43.5224 42.4333 44.1935C42.3545 44.273 42.3098 44.3801 42.3087 44.4921C42.3087 45.4412 42.6813 46.2191 43.4596 46.7711C44.4981 47.5093 45.7408 47.3724 46.9753 47.6476L44.9639 42.1788Z" fill="black"></path>
        <path d="M52.8507 14.3474C53.5728 14.4556 54.2208 14.5487 54.8771 14.6514C55.6704 14.7761 55.9321 15.3869 55.4389 16.021C54.2377 17.5523 53.0261 19.0757 51.8039 20.5914C51.4875 20.9872 51.023 21.0598 50.6791 20.7969C50.3352 20.5339 50.2831 20.0504 50.6202 19.6204C51.4642 18.5466 52.3177 17.4797 53.1672 16.41C53.2508 16.3059 53.3289 16.1963 53.4632 16.0169C52.7206 15.9046 52.0314 15.8402 51.3641 15.6827C51.0682 15.6143 50.6791 15.4088 50.5832 15.1732C50.4873 14.9377 50.6298 14.4884 50.8216 14.2734C51.9848 12.9545 53.1919 11.6711 54.3839 10.381C54.4181 10.344 54.4524 10.3056 54.4894 10.27C54.836 9.94818 55.2854 9.9249 55.5937 10.2125C55.902 10.5001 55.9431 10.9384 55.6129 11.3082C54.8251 12.1861 54.0194 13.0449 53.222 13.9105C53.111 14.0296 53.0097 14.1611 52.8507 14.3474Z" fill="black"></path>
        <path d="M15.2019 24.8832C16.435 25.5844 17.6051 26.2528 18.7724 26.9143C18.9505 27.0156 19.1327 27.1101 19.3013 27.2252C19.6958 27.4991 19.8 27.921 19.5753 28.2908C19.3643 28.6359 18.9532 28.7482 18.5422 28.5496C18.2819 28.4236 18.0366 28.2675 17.7845 28.1237C16.3468 27.3019 14.9096 26.4829 13.4728 25.6666C12.6767 25.2105 12.6685 24.5709 13.4495 24.1148C14.0085 23.7875 14.5702 23.4656 15.1991 23.1013L12.5754 21.8413C12.2054 21.6646 11.83 21.5016 11.4683 21.3112C11.3745 21.2692 11.2901 21.2091 11.2198 21.1342C11.1495 21.0593 11.0947 20.9712 11.0588 20.875C11.0228 20.7788 11.0064 20.6764 11.0103 20.5737C11.0143 20.4711 11.0386 20.3703 11.0819 20.2772C11.1231 20.1868 11.182 20.1056 11.255 20.0384C11.3281 19.9711 11.4139 19.9192 11.5074 19.8856C11.6009 19.852 11.7001 19.8375 11.7993 19.8429C11.8985 19.8483 11.9956 19.8735 12.0849 19.917C13.8002 20.7168 15.5101 21.5221 17.2063 22.3631C17.7969 22.6562 17.7763 23.3574 17.194 23.7204C16.572 24.108 15.9239 24.4613 15.2019 24.8832Z" fill="black"></path>
        <path d="M21.1509 14.3161L18.671 11.6262C18.5559 11.5002 18.4326 11.3783 18.3312 11.2427C18.0709 10.8907 18.0874 10.5415 18.3888 10.2237C18.4585 10.154 18.5413 10.0988 18.6324 10.061C18.7235 10.0233 18.8211 10.0039 18.9197 10.0039C19.0183 10.0039 19.1159 10.0233 19.207 10.061C19.2981 10.0988 19.3809 10.154 19.4506 10.2237C19.7123 10.4675 19.9425 10.7456 20.185 11.0099C21.1715 12.0755 22.1525 13.1451 23.1444 14.2066C23.4034 14.4805 23.5952 14.775 23.4568 15.1653C23.3185 15.5556 22.9883 15.6597 22.6087 15.7131C21.9374 15.7953 21.2715 15.9104 20.522 16.0227L23.1129 19.2837C23.2294 19.4316 23.3541 19.5741 23.4568 19.7302C23.7035 20.1041 23.65 20.5355 23.3363 20.7889C23.2556 20.8526 23.1631 20.8996 23.0641 20.9272C22.965 20.9548 22.8615 20.9624 22.7596 20.9497C22.6576 20.937 22.5591 20.9041 22.47 20.853C22.3808 20.8018 22.3027 20.7335 22.2402 20.652C21.6017 19.8727 20.9838 19.0769 20.3563 18.288C19.7603 17.5402 19.1574 16.7979 18.5751 16.0419C18.0654 15.3858 18.3285 14.7791 19.1547 14.6613C19.7301 14.5791 20.3028 14.4901 20.8769 14.4024C20.9386 14.3819 21.003 14.3572 21.1509 14.3161Z" fill="black"></path>
        <path d="M58.8011 24.8823C58.116 24.4837 57.5105 24.1304 56.9035 23.7866C56.587 23.6058 56.2924 23.3579 56.4048 22.9867C56.4999 22.6906 56.7009 22.44 56.9693 22.2827C58.5394 21.4966 60.1301 20.7556 61.7181 20.0037C62.2661 19.7449 62.7114 19.8503 62.9142 20.2667C63.1293 20.7077 62.9293 21.1336 62.3661 21.4048C61.3523 21.891 60.3343 22.3704 59.3176 22.8539C59.1669 22.9265 59.019 23.0045 58.8148 23.1086C59.4437 23.4716 60.0205 23.7934 60.5877 24.1331C61.3139 24.5659 61.3194 25.2165 60.5877 25.6397C58.9326 26.5929 57.273 27.5379 55.6087 28.4748C55.0936 28.7665 54.636 28.6761 54.4099 28.2611C54.1838 27.8461 54.3359 27.4393 54.8689 27.1339C56.1513 26.3943 57.4392 25.6616 58.8011 24.8823Z" fill="black"></path>
        <path d="M57.5609 45.2136C57.7587 45.2178 57.9473 45.2983 58.0872 45.4381C58.2271 45.578 58.3075 45.7664 58.3117 45.9642C58.3067 46.1706 58.2216 46.3669 58.0743 46.5116C57.9269 46.6563 57.7291 46.738 57.5225 46.7394C57.4203 46.7358 57.3198 46.7116 57.2271 46.6685C57.1343 46.6253 57.0512 46.564 56.9826 46.4881C56.9139 46.4123 56.8613 46.3234 56.8276 46.2268C56.794 46.1302 56.7801 46.0279 56.7868 45.9258C56.7905 45.8281 56.8135 45.7322 56.8544 45.6434C56.8954 45.5546 56.9536 45.4748 57.0255 45.4086C57.0975 45.3424 57.1818 45.2911 57.2737 45.2577C57.3656 45.2242 57.4632 45.2092 57.5609 45.2136Z" fill="black"></path>
        <path d="M27.0078 47.6931C27.7203 45.7537 28.3779 43.9527 29.1014 41.9941C29.2528 42.2085 29.4204 42.4108 29.6028 42.5995C30.17 43.0885 30.7345 43.5843 31.3388 44.0239C31.6128 44.2198 31.7251 44.3814 31.6895 44.721C31.5717 45.8427 31.025 46.7029 29.981 47.0658C29.0644 47.3849 28.071 47.4781 27.0078 47.6931Z" fill="white"></path>
        <path d="M44.9639 42.1797L46.9752 47.6485C45.7421 47.3746 44.498 47.5116 43.4595 46.772C42.6813 46.2242 42.3113 45.4421 42.3086 44.493C42.3097 44.381 42.3544 44.2739 42.4333 44.1944C43.2622 43.5233 44.0993 42.8645 44.9639 42.1797Z" fill="white"></path>
        <path d="M39.4533 39.2543C39.3163 39.4433 39.2025 39.7432 38.9998 39.8309C38.7737 39.9281 38.375 39.9405 38.2065 39.8021C37.3666 39.1173 36.598 39.1269 35.7745 39.8227C35.4443 40.0966 35.0511 40.0062 34.7757 39.6761C34.5003 39.3461 34.5373 39.005 34.7867 38.69C35.7636 37.4574 38.2681 37.4574 39.2108 38.7065C39.3163 38.8352 39.3505 39.0091 39.4533 39.2543Z" fill="black"></path>
        <path d="M34.8531 34.0487C34.8627 34.5253 34.5503 34.7417 34.1598 34.8787C33.6597 35.054 33.1884 35.5539 32.6143 35.0636C32.5245 34.9858 32.4547 34.8874 32.411 34.7769C32.3674 34.6664 32.351 34.547 32.3634 34.4288C32.3758 34.3106 32.4165 34.1972 32.4821 34.0981C32.5477 33.999 32.6363 33.9172 32.7403 33.8597C33.0927 33.6562 33.4645 33.4882 33.8501 33.3584C33.9621 33.3172 34.0823 33.3034 34.2007 33.3183C34.3191 33.3332 34.4322 33.3763 34.5305 33.4439C34.6287 33.5115 34.7093 33.6018 34.7655 33.707C34.8216 33.8123 34.8516 33.9294 34.8531 34.0487Z" fill="black"></path>
        <path d="M39.8369 33.1758C40.4384 33.4867 40.9851 33.6935 41.4262 34.0359C41.5865 34.1605 41.6139 34.681 41.4865 34.8878C41.3591 35.0946 40.9385 35.2672 40.6877 35.222C40.2537 35.1398 39.8455 34.9553 39.4971 34.6837C39.3886 34.5782 39.3055 34.4494 39.2542 34.307C39.2029 34.1646 39.1848 34.0124 39.2012 33.862C39.2519 33.6168 39.5903 33.4305 39.8369 33.1758Z" fill="black"></path>
      </g>
    </g>
    <defs>
      <clipPath id="clip0_3591_640">
        <rect width="72" height="72" fill="white" transform="translate(0.5)"></rect>
      </clipPath>
      <clipPath id="clip1_3591_640">
        <rect width="52" height="52" fill="white" transform="translate(11 10)"></rect>
      </clipPath>
    </defs>
  </symbol>
  <symbol fill="none" xmlns="http://www.w3.org/2000/svg" viewBox="0 0 73 72" id="well-being">
    <g clip-path="url(#clip0_3591_543)">
      <path fill-rule="evenodd" clip-rule="evenodd" d="M14.7599 16.3467C18.891 10.7632 24.822 7.58019 31.5467 5.8314C39.786 3.68875 48.6047 1.15216 55.8263 5.66724C64.7922 11.2729 73.4231 20.6471 71.9871 31.1156C70.5861 41.3286 57.948 44.0953 49.7056 50.2866C40.3624 57.3047 33.215 71.8051 21.9394 68.7086C10.6222 65.6008 8.86945 50.2567 7.27593 38.6347C6.15556 30.4636 9.85584 22.9748 14.7599 16.3467Z" fill="#BACFED"></path>
      <g clip-path="url(#clip1_3591_543)">
        <path d="M39.1763 10C41.0326 10.3359 42.9134 10.577 44.7425 11.0293C49.4349 12.1941 53.6402 14.2554 56.7948 18.0504C58.9069 20.5885 60.178 23.5221 60.3141 26.8105C60.4152 29.2294 60.3325 31.6525 60.0665 34.0591C59.7562 36.841 58.4197 39.2409 56.5743 41.3375C55.7278 42.2991 54.8895 43.304 53.8906 44.0923C52.5841 45.1243 52.2275 46.392 52.4126 47.9306C52.448 48.2312 52.6004 48.5698 52.5052 48.8217C52.4514 48.9949 52.3639 49.1558 52.2476 49.2952C52.1313 49.4346 51.9885 49.5499 51.8274 49.6344C51.6478 49.694 51.1007 49.3066 51.0626 49.0655C50.7332 46.9988 50.5591 44.9428 52.4535 43.3988C52.8726 43.0575 53.2292 42.6458 53.6293 42.2828C59.2798 37.166 59.8215 30.7409 58.2156 23.8796C57.4916 20.7998 55.589 18.2888 52.9842 16.5064C45.363 11.3029 37.0968 10.13 28.3406 13.0203C26.556 13.5826 24.9084 14.5082 23.5027 15.7384C22.0969 16.9686 20.9637 18.4764 20.1751 20.1659C19.9437 20.6427 19.647 21.1384 19.0264 20.835C18.4059 20.5316 18.5828 19.9628 18.8359 19.4427C20.8855 15.2441 24.3422 12.6708 28.689 11.2677C30.5072 10.6772 32.4315 10.4144 34.3069 10.0027L39.1763 10Z" fill="black"></path>
        <path d="M45.5279 36.4203C47.6019 37.8261 50.1251 37.6961 51.8861 36.1494C52.757 35.4097 53.3463 34.3949 53.5554 33.2746C53.7644 32.1544 53.5807 30.9967 53.0347 29.9951C52.621 29.2285 52.6129 28.7464 53.247 28.0665C53.7327 27.5567 54.078 26.9308 54.2497 26.2493C54.4213 25.5679 54.4134 24.8539 54.2268 24.1763C54.0402 23.4988 53.6811 22.8806 53.1843 22.3815C52.6875 21.8824 52.0698 21.5193 51.3907 21.3271C51.0538 21.2503 50.7425 21.0883 50.487 20.8567C50.2314 20.6252 50.0402 20.3319 49.9318 20.0053C49.7019 19.4309 49.3433 18.9163 48.8833 18.5006C48.4233 18.085 47.8741 17.7794 47.2774 17.607C46.6808 17.4345 46.0524 17.3999 45.4403 17.5057C44.8282 17.6115 44.2484 17.855 43.7451 18.2175C42.904 18.8053 42.4957 18.6753 41.8398 17.9277C41.1838 17.1801 40.2829 16.6789 39.4255 16.1724C38.9682 15.9015 38.5082 15.6306 38.7967 15.1404C38.9519 14.8695 39.6514 14.6311 39.9263 14.7611C40.8366 15.1923 41.6979 15.719 42.4957 16.3322C42.8959 16.6356 43.1245 16.7494 43.6253 16.5272C46.6384 15.1891 49.6896 16.2564 51.2465 19.1168C51.4561 19.4781 51.7767 19.7629 52.161 19.9294C55.7566 21.3922 56.976 25.4119 54.8121 28.6516C54.7131 28.8226 54.65 29.0119 54.6267 29.2079C54.6033 29.4039 54.6201 29.6026 54.676 29.792C55.8573 32.9937 54.8148 36.1494 51.9542 38.0103C51.5879 38.2761 51.3239 38.6583 51.2057 39.0938C51.0254 39.8438 50.6621 40.5379 50.148 41.1149C49.6338 41.6918 48.9848 42.1338 48.2581 42.4016C47.5315 42.6694 46.7498 42.7549 45.9821 42.6504C45.2143 42.5459 44.4844 42.2547 43.8567 41.8025C43.4811 41.5452 43.0183 41.4206 42.3433 41.1254C42.6781 42.2089 42.9176 42.9836 43.1408 43.7501C43.6117 45.3754 42.8441 46.2368 41.1484 45.993C41.1158 45.993 41.0831 45.9767 41.0504 45.9767C38.6008 45.9578 37.1201 44.7632 36.4941 42.3714C36.1354 41.1765 35.6614 40.019 35.0787 38.915C34.8855 38.5141 34.4146 37.9615 34.0662 37.9588C32.0384 37.9426 30.5686 37.0731 29.5561 35.3151C27.8331 36.2198 26.1075 36.3607 24.3846 35.4966C23.2079 34.904 22.29 33.9029 21.8046 32.6826C21.3191 31.4623 21.2996 30.1073 21.7498 28.8737C21.9416 28.327 21.9765 27.7379 21.8505 27.1726C21.1265 24.3311 22.4548 21.3651 25.144 20.1922C25.7542 19.9419 26.2424 19.4648 26.5049 18.8622C27.0109 17.8367 27.8525 17.0131 28.8913 16.5267C29.9301 16.0403 31.1043 15.9201 32.2208 16.1859C32.4882 16.2637 32.7714 16.2709 33.0424 16.2067C33.3135 16.1426 33.5631 16.0094 33.7668 15.8203C34.3256 15.3873 34.9505 15.0462 35.6176 14.8099C35.8708 14.7205 36.3825 14.9643 36.5648 15.2108C36.671 15.3571 36.4532 15.9151 36.2273 16.0993C35.4502 16.7321 34.6319 17.313 33.7777 17.8383C33.4641 17.9937 33.1024 18.0228 32.7679 17.9195C30.2583 17.0717 28.4265 17.9358 27.5337 20.3574C27.3694 20.7391 27.0603 21.0409 26.6736 21.1971C23.6796 22.2806 22.5528 24.5587 23.5816 27.495C23.7286 27.9175 23.5816 28.5324 23.3775 28.9685C22.6072 30.6263 22.961 32.5061 24.3383 33.6519C25.7155 34.7977 27.5201 34.8248 29.0825 33.7196C28.8266 33.4921 28.5762 33.289 28.3449 33.0614C27.0329 31.7721 27.0982 29.5671 28.5408 28.5216C28.813 28.3157 29.3574 28.4457 29.7793 28.4213C29.7194 28.8033 29.7793 29.2908 29.5751 29.5509C28.598 30.7481 28.7586 31.6312 30.0841 32.4059C30.4035 32.6137 30.6305 32.9356 30.7183 33.3052C31.1538 35.6781 31.9241 36.3282 34.3084 36.3363C34.6954 36.3771 35.0608 36.5339 35.3563 36.7859C36.3716 37.5823 37.2616 37.6744 38.3068 36.8889C38.8512 36.488 39.2404 36.5936 39.7793 36.8564C41.5213 37.7042 43.3558 37.0947 44.2922 35.4045C44.5643 34.9061 44.7712 34.2126 45.5279 34.5919C46.2846 34.9711 45.8845 35.5643 45.664 36.0925C45.6095 36.1927 45.5796 36.2875 45.5279 36.4203ZM36.8588 39.1073C37.2861 40.1692 37.7325 41.2743 38.1843 42.3985C38.9247 44.2133 39.6487 44.6169 41.7227 44.3163L40.3428 39.7845C40.2638 39.5299 40.1931 39.2672 40.0951 39.0179C39.8419 38.3706 39.3874 38.2053 38.7341 38.4545C38.1381 38.6821 37.5311 38.8744 36.8588 39.1073ZM41.7418 38.7931L41.5349 39.1127C41.9541 39.3322 42.3733 39.7358 42.787 39.7331C43.6035 39.7331 44.1479 40.0256 44.7549 40.5159C46.4533 41.8703 49.0037 41.0333 49.4991 39.0098C48.6825 38.9259 47.8224 38.9394 47.0303 38.739C46.1348 38.5033 45.2938 37.7882 44.431 37.7882C43.5681 37.7882 42.6972 38.4112 41.8316 38.7606C41.8017 38.7606 41.7717 38.7796 41.7418 38.7931V38.7931Z" fill="black"></path>
        <path d="M16.7889 48.3263C15.0551 47.4432 14.8591 46.9394 15.428 45.5607C15.0197 44.6234 14.3392 43.8189 14.4481 43.1228C14.557 42.4267 15.4008 41.7684 15.9723 41.0316C15.7002 40.9125 15.428 40.796 15.1558 40.6876C12.6081 39.6583 12.2679 37.4371 14.3392 35.6629C15.3028 34.8286 16.1656 33.8778 17.0611 32.9542C17.6436 32.3555 17.6299 31.719 17.1155 31.058C16.1438 29.8147 16.0268 28.5416 16.7971 27.106C17.1618 26.418 17.2244 25.5647 17.3959 24.7792C17.4748 24.4216 17.3959 23.9909 17.5537 23.6957C17.747 23.3489 18.1362 23.1106 18.4383 22.8262C18.6397 23.1648 19.0507 23.5386 19.0018 23.8365C18.7776 25.2563 18.4593 26.6598 18.0491 28.0378C17.8286 28.7448 17.796 29.2838 18.1907 29.9339C19.4236 31.9438 19.4128 32.5506 17.9185 34.3519C17.1455 35.2756 16.1955 36.0584 15.2946 36.871C14.1786 37.8787 14.3038 38.6805 15.7165 39.2628C15.8716 39.3278 16.0349 39.3712 16.1901 39.4362C17.7062 40.07 17.9756 41.224 16.8869 42.4619C16.6147 42.7652 16.3262 43.0442 15.9914 43.3855C16.4922 44.3228 18.6152 44.9295 16.6474 46.4464C17.0584 46.6848 17.3605 46.8311 17.6327 47.0207C18.3213 47.5082 18.5635 48.1421 18.2369 48.9574C17.2543 51.4143 18.3975 53.2508 21.1275 53.2914C22.8867 53.2865 24.6423 53.1325 26.3752 52.8309C29.3312 52.3867 31.5467 53.4892 33.1798 55.8702C33.8573 56.916 34.4411 58.0191 34.9246 59.1667C35.3519 60.1175 35.9861 60.3992 36.9523 60.15C41.7646 58.9121 46.5795 57.685 51.3781 56.4363C52.5948 56.1221 52.8942 55.5234 52.5104 54.3262C52.2839 53.7651 52.1019 53.1873 51.966 52.598C51.9225 52.3271 52.2001 51.7502 52.3634 51.7393C52.6846 51.7176 53.2154 51.91 53.3242 52.1565C53.7183 53.0129 54.0079 53.9132 54.1871 54.8381C54.4293 56.2819 53.4386 57.4737 51.7374 57.9207C48.2698 58.8227 44.794 59.7003 41.3209 60.5888C39.9137 60.949 38.5065 61.3201 37.0939 61.6723C35.5479 62.0434 34.372 61.4664 33.6671 60.047C33.1227 58.9635 32.63 57.8475 31.9904 56.8236C30.6703 54.7487 28.765 53.9632 26.3154 54.3749C25.0497 54.5835 23.7704 54.7596 22.4884 54.849C21.681 54.908 20.8692 54.8606 20.0742 54.7081C17.1482 54.1311 15.2238 51.3276 16.7889 48.3263Z" fill="black"></path>
        <path d="M39.2597 33.3393C39.9674 32.5267 40.49 31.8007 41.1378 31.2211C41.41 30.9881 41.9408 31.064 42.3572 30.999C42.3109 31.408 42.4035 31.9254 42.1884 32.2044C41.6498 32.8552 41.0541 33.457 40.4084 34.0029C39.5918 34.7208 38.6201 34.7478 37.8416 34.0029C35.969 32.1962 34.0964 30.3814 32.3136 28.4879C30.8356 26.9142 30.9037 24.4248 32.3136 22.7373C33.0137 21.8995 33.9911 21.3375 35.0702 21.1523C36.1492 20.9671 37.2592 21.1709 38.2009 21.7269C38.5139 21.9138 38.8079 22.1359 39.1454 22.3635C40.441 21.2421 41.9271 20.7897 43.582 21.261C45.4029 21.7784 46.5162 23.0298 46.8891 24.8718C47.2946 26.8654 46.3284 28.3308 44.8722 29.5308C44.668 29.6988 44.0175 29.6933 43.9195 29.5308C43.8393 29.3703 43.7935 29.1949 43.7851 29.0159C43.7767 28.8368 43.8058 28.6579 43.8705 28.4907C43.9985 28.171 44.3741 27.9489 44.6191 27.678C45.8248 26.302 45.7241 24.5548 44.3795 23.3603C43.0839 22.2064 41.2167 22.3418 40.0246 23.6745C39.189 24.6144 39.0474 24.6172 38.2363 23.7178C36.9652 22.3093 35.0409 22.1874 33.7289 23.4307C32.417 24.674 32.466 26.5106 33.7752 27.8324C35.5199 29.5904 37.2619 31.3321 39.2597 33.3393Z" fill="black"></path>
      </g>
    </g>
    <defs>
      <clipPath id="clip0_3591_543">
        <rect width="72" height="72" fill="white" transform="translate(0.5)"></rect>
      </clipPath>
      <clipPath id="clip1_3591_543">
        <rect width="47.3547" height="51.7804" fill="white" transform="translate(13 10)"></rect>
      </clipPath>
    </defs>
  </symbol>
  <symbol fill="none" xmlns="http://www.w3.org/2000/svg" viewBox="0 0 73 72" id="addiction">
    <g clip-path="url(#clip0_3605_667)">
      <path fill-rule="evenodd" clip-rule="evenodd" d="M14.7599 16.3467C18.891 10.7632 24.822 7.58019 31.5467 5.8314C39.786 3.68875 48.6047 1.15216 55.8263 5.66724C64.7922 11.2729 73.4231 20.6471 71.9871 31.1156C70.5861 41.3286 57.948 44.0953 49.7056 50.2866C40.3624 57.3047 33.215 71.8051 21.9394 68.7086C10.6222 65.6008 8.86945 50.2567 7.27593 38.6347C6.15556 30.4636 9.85584 22.9748 14.7599 16.3467Z" fill="#BACFED"></path>
      <g clip-path="url(#clip1_3605_667)">
        <path d="M44.0836 14C44.4069 14.0911 44.7241 14.203 45.033 14.3351C46.3336 14.9808 47.0999 16.0241 47.1365 17.4933C47.1786 19.1836 47.146 20.8753 47.146 22.6267C47.3115 22.5819 47.4349 22.5588 47.5529 22.5168C50.3318 21.5169 53.1298 23.3307 53.3603 26.2786C53.3793 26.531 53.3834 26.7846 53.3834 27.0383C53.3834 31.7584 53.3807 36.4785 53.3753 41.1986C53.3676 41.3804 53.4 41.5617 53.4703 41.7296C53.5407 41.8975 53.6471 42.0478 53.7821 42.1699C55.3323 43.7042 56.8635 45.2589 58.5019 46.9072C58.6606 46.6928 58.7596 46.4744 58.9277 46.3537C59.0959 46.2329 59.4011 46.0715 59.5584 46.138C59.9761 46.313 60.1741 46.0905 60.4074 45.8395C60.6407 45.5885 60.8536 45.3755 61.0855 45.1612C61.7379 44.5765 62.6045 44.548 63.2406 45.149C64.0887 45.9512 64.912 46.7778 65.7104 47.6289C66.2841 48.2448 66.2623 49.0614 65.7239 49.7045C65.5503 49.912 65.3496 50.0965 65.1624 50.2905C64.8722 50.5917 64.4667 50.8223 64.6972 51.3758C64.7542 51.5115 64.5874 51.7828 64.4558 51.9456C64.3243 52.1084 64.1208 52.1708 63.8374 52.3526L71.9952 60.4081V65.4858C71.8962 65.6517 71.7538 65.7873 71.5834 65.8782C71.413 65.969 71.2211 66.0116 71.0282 66.0014C65.1963 65.9891 59.355 66.0014 53.5177 65.9783C53.2193 65.9783 52.8816 65.7952 52.632 65.6052C52.3065 65.3556 52.0502 65.0124 51.7545 64.7004C51.5972 64.8455 51.5104 64.9229 51.4263 65.0043C50.8404 65.5727 50.5217 65.5686 49.9345 64.9812C49.7036 64.7825 49.4895 64.5651 49.2943 64.3314C48.6067 63.3668 47.6885 63.0331 46.5343 63.2068C46.2631 63.2475 46.0922 63.2881 45.9579 63.5676C45.551 64.4223 44.8499 64.9337 43.9005 65.0097C43.2942 65.0601 42.6845 65.0556 42.0791 64.9961C41.1297 64.8984 40.4692 64.3504 40.0582 63.4957C39.9904 63.3601 39.9362 63.2081 39.8643 63.0399C39.1007 63.6666 38.2612 63.9678 37.3701 63.63C36.7633 63.4124 36.2126 63.0624 35.7579 62.6052C35.3033 62.1481 34.9561 61.5954 34.7417 60.9873C34.4122 60.0838 34.72 59.2428 35.3141 58.5075C33.7368 57.779 33.3163 57.1305 33.3299 55.4144C33.3299 54.8487 33.3963 54.283 33.4357 53.6508C33.0461 53.6684 32.6559 53.6657 32.2666 53.6427C32.0863 53.6208 31.9203 53.5336 31.7999 53.3977C31.6795 53.2617 31.613 53.0863 31.613 52.9047C31.613 52.7231 31.6795 52.5477 31.7999 52.4117C31.9203 52.2758 32.0863 52.1886 32.2666 52.1667C32.4685 52.1467 32.6714 52.139 32.8742 52.1436H35.1093V50.787H34.5139C32.4497 50.787 30.3855 50.7979 28.3212 50.787C26.5093 50.7735 25.0852 49.5742 24.753 47.793C24.6824 47.4145 24.7109 47.0184 24.677 46.6318C24.6458 46.2358 24.4659 45.8664 24.1734 45.5978C23.8808 45.3292 23.4975 45.1814 23.1004 45.1842C22.7034 45.1869 22.3221 45.34 22.0333 45.6126C21.7446 45.8852 21.5697 46.2571 21.5441 46.6535C21.4358 47.9838 21.8583 49.303 22.7193 50.3228C23.5802 51.3426 24.8097 51.9801 26.139 52.0962C26.9786 52.1721 27.8289 52.1219 28.6739 52.1409C29.2476 52.1545 29.5636 52.434 29.5649 52.8966C29.5663 53.3592 29.2462 53.6495 28.6806 53.6576C27.9374 53.6685 27.1888 53.6834 26.4483 53.6576C24.2661 53.5667 22.5151 52.6442 21.2308 50.8711C19.7063 48.7643 19.6345 46.2302 21.026 44.4015C19.6616 42.6881 19.6616 41.5648 21.0422 39.7077C20.7235 39.4168 20.4686 39.0631 20.2935 38.6687C20.1184 38.2743 20.027 37.8479 20.0251 37.4163C20.0183 36.4871 20.4102 35.7247 21.045 35.0816C19.9138 33.7087 19.6887 32.4118 20.4469 31.199C21.4735 29.5711 22.9505 29.2998 24.6919 30.0147V29.4042C24.6919 25.4945 24.6919 21.5848 24.6919 17.6764C24.6919 15.9427 25.7905 14.5562 27.46 14.1099C27.5536 14.0841 27.6431 14.0393 27.7313 14.0041L44.0836 14ZM44.3169 42.7234C44.3169 43.0788 44.3169 43.3596 44.3169 43.6404C44.3169 45.2684 43.5628 46.0199 41.9217 46.0213C37.9117 46.0213 33.9022 46.0213 29.8931 46.0213C28.3077 46.0213 27.5333 45.2426 27.5333 43.654C27.5333 39.7958 27.5333 35.9377 27.5333 32.0795C27.5251 31.9439 27.5251 31.808 27.5333 31.6725C27.5875 31.2438 27.8425 30.986 28.2684 30.9738C28.6942 30.9616 28.9587 31.218 29.036 31.6372C29.0555 31.8051 29.0601 31.9745 29.0496 32.1432V43.616C29.0496 44.4124 29.1323 44.4978 29.9135 44.4978H41.8905C42.7206 44.4978 42.7884 44.4286 42.7897 43.5997V23.7743H29.0536C29.0536 25.2245 29.0536 26.6436 29.0536 28.0612C29.0536 28.6038 28.7349 28.9389 28.2738 28.9281C27.8343 28.9186 27.5373 28.5916 27.5373 28.0748C27.5373 25.6546 27.5238 23.2344 27.5373 20.8156C27.5455 19.6435 28.3918 18.7807 29.5527 18.7807C33.8023 18.7653 38.0487 18.7653 42.292 18.7807C43.4407 18.7807 44.2545 19.6068 44.306 20.7654C44.3386 21.5088 44.3453 22.2577 44.344 22.997C44.3386 26.668 44.33 30.3394 44.3182 34.0113C44.3264 34.1248 44.3422 34.2377 44.3657 34.3491C44.7509 34.0235 45.1103 33.744 45.4385 33.4306C45.5541 33.3144 45.6219 33.159 45.6284 32.9952C45.6365 27.8518 45.6365 22.708 45.6284 17.5638C45.6284 16.4039 44.7034 15.5289 43.5289 15.5289C38.471 15.518 33.4131 15.518 28.3552 15.5289C28.0744 15.522 27.7951 15.5722 27.5342 15.6764C27.2734 15.7807 27.0364 15.9367 26.8376 16.1352C26.6388 16.3337 26.4823 16.5704 26.3776 16.8311C26.2729 17.0919 26.2222 17.3711 26.2286 17.652C26.2222 27.4828 26.2222 37.3142 26.2286 47.1459C26.2226 47.4211 26.2718 47.6947 26.3735 47.9505C26.4752 48.2063 26.6271 48.4391 26.8204 48.635C27.0136 48.831 27.2443 48.9862 27.4986 49.0913C27.7529 49.1965 28.0257 49.2495 28.3009 49.2473C33.3932 49.2581 38.485 49.2581 43.5763 49.2473C43.845 49.2496 44.1114 49.1987 44.3603 49.0975C44.6092 48.9963 44.8355 48.8467 45.0263 48.6576C45.2171 48.4684 45.3685 48.2433 45.4718 47.9952C45.5752 47.7472 45.6284 47.4811 45.6284 47.2124C45.6541 46.18 45.6406 45.1476 45.6284 44.1153C45.6347 43.9675 45.5865 43.8226 45.4927 43.7083C45.1415 43.3881 44.7604 43.0924 44.3169 42.7234ZM47.1528 44.5955C47.1528 45.3864 47.1528 46.1746 47.1528 46.9628C47.1365 49.2609 45.6243 50.7735 43.3349 50.7775C41.3042 50.7775 39.2743 50.7775 37.2454 50.7775H36.7029V52.1342H37.2644C38.4145 52.1342 39.57 52.1436 40.7147 52.1342C40.9075 52.1263 41.0998 52.1606 41.278 52.2346C41.4562 52.3086 41.6162 52.4206 41.7468 52.5628C43.4245 54.2599 45.1157 55.9408 46.8029 57.627C46.9385 57.7627 47.066 57.878 47.1257 57.935L57.265 47.793C55.6755 46.2058 54.0466 44.5589 52.3906 42.9377C52.2109 42.7753 52.0691 42.5752 51.9754 42.3518C51.8816 42.1283 51.8382 41.887 51.8481 41.6449C51.8644 36.772 51.8576 31.9004 51.8563 27.0275C51.859 26.7402 51.8454 26.4531 51.8156 26.1674C51.7559 25.7043 51.5801 25.2639 51.3045 24.8871C51.0288 24.5104 50.6623 24.2095 50.2391 24.0126C49.8159 23.8157 49.3498 23.7292 48.8841 23.7611C48.4184 23.7929 47.9684 23.9422 47.5759 24.1949C47.4363 24.2704 47.3213 24.3845 47.2446 24.5235C47.1679 24.6625 47.1327 24.8206 47.1433 24.979C47.1609 27.3476 47.1514 29.7163 47.1541 32.0849C47.1541 32.2206 47.1772 32.3684 47.1867 32.4797C47.854 32.4105 48.4711 32.3155 49.0854 32.2897C49.1837 32.2846 49.2819 32.2999 49.3739 32.3347C49.4658 32.3696 49.5496 32.4231 49.6199 32.4919C49.6901 32.5608 49.7453 32.6435 49.7819 32.7348C49.8186 32.8261 49.8359 32.924 49.8327 33.0223C49.8178 33.4483 49.5791 33.7101 49.1546 33.7874C49.0371 33.8008 48.9189 33.8067 48.8006 33.8051C45.8915 33.9407 43.7825 36.776 44.4403 39.6181C44.6886 40.6446 45.2662 41.5615 46.0847 42.2286C46.9032 42.8957 47.9176 43.2763 48.9729 43.3121C49.5371 43.3284 49.8558 43.6594 49.8341 44.1003C49.811 44.5684 49.4272 44.8655 48.8576 44.8139C48.288 44.7624 47.7658 44.6755 47.1528 44.5955V44.5955ZM52.83 63.588C53.264 64.2283 53.7618 64.4915 54.5416 64.4847C59.6506 64.4413 64.7596 64.463 69.8673 64.463H70.4776C70.4776 63.4265 70.4627 62.4633 70.4776 61.5015C70.4869 61.3442 70.4605 61.1868 70.4004 61.0411C70.3402 60.8955 70.2479 60.7653 70.1304 60.6604C67.86 58.4084 65.5996 56.1474 63.3491 53.8774C63.2135 53.7417 63.1525 53.5572 63.0236 53.3347C62.4716 53.9099 62.0743 54.3413 61.6511 54.7605C61.3351 55.0793 60.973 55.135 60.6027 54.8596C60.2148 54.5706 60.2094 54.0632 60.6027 53.6698C61.3541 52.9169 62.1217 52.1776 62.8337 51.4857L59.4201 48.0874L47.3983 60.1015L50.7889 63.5079L57.7356 56.5336C57.8572 56.3944 57.9937 56.2688 58.1425 56.1592C58.2875 56.0631 58.4614 56.0204 58.6344 56.0384C58.8074 56.0565 58.9687 56.1341 59.0908 56.2579C59.2129 56.3818 59.2882 56.5443 59.3037 56.7176C59.3192 56.8909 59.2741 57.0642 59.1759 57.2078C59.0631 57.3553 58.9364 57.4916 58.7975 57.6148L52.83 63.588ZM45.5266 60.6034C45.2147 59.8831 45.7274 59.5426 46.103 59.1559C46.0908 59.1182 46.0729 59.0826 46.0501 59.0501C44.3223 57.3155 42.5926 55.5822 40.8611 53.8502C40.7852 53.762 40.6822 53.7014 40.5682 53.678C39.8317 53.663 39.0967 53.6698 38.39 53.6698C38.5053 55.1119 38.8457 56.5119 37.8394 57.7179C39.0821 58.2846 40.0805 59.278 40.6536 60.518C41.3816 60.044 42.2348 59.7989 43.1032 59.8141C43.9717 59.8294 44.8157 60.1043 45.5266 60.6034V60.6034ZM29.0563 22.1315H42.7938C42.7938 21.7679 42.7938 21.4342 42.7938 21.1005C42.7938 20.3855 42.6921 20.2865 41.9638 20.2865H29.8959C29.7941 20.2865 29.6924 20.2865 29.5921 20.2865C29.2476 20.3028 29.0618 20.4873 29.0496 20.8291C29.0496 21.2524 29.0563 21.673 29.0563 22.1315ZM23.1363 40.504C22.8268 40.5008 22.5232 40.5894 22.2639 40.7585C22.0046 40.9276 21.8012 41.1697 21.6792 41.4543C21.5573 41.7389 21.5223 42.0533 21.5787 42.3577C21.6351 42.6622 21.7803 42.9431 21.996 43.1652C22.2118 43.3872 22.4884 43.5404 22.791 43.6054C23.0937 43.6704 23.4088 43.6444 23.6967 43.5305C23.9846 43.4167 24.2323 43.2202 24.4087 42.9657C24.5851 42.7113 24.6822 42.4103 24.6878 42.1007C24.6916 41.8937 24.6544 41.6881 24.5783 41.4956C24.5022 41.3031 24.3888 41.1275 24.2446 40.9791C24.1003 40.8307 23.9281 40.7123 23.7379 40.6307C23.5477 40.5492 23.3432 40.5061 23.1363 40.504V40.504ZM24.6878 37.3919C24.686 37.0817 24.5923 36.7791 24.4187 36.522C24.2452 36.265 23.9994 36.0651 23.7124 35.9476C23.4254 35.8301 23.1101 35.8002 22.8061 35.8616C22.5022 35.9231 22.2232 36.0732 22.0044 36.293C21.7856 36.5128 21.6368 36.7925 21.5766 37.0968C21.5165 37.4011 21.5477 37.7163 21.6665 38.0029C21.7852 38.2894 21.9861 38.5344 22.2438 38.7069C22.5015 38.8795 22.8045 38.9718 23.1146 38.9724C23.3218 38.9724 23.5269 38.9314 23.7182 38.8519C23.9095 38.7724 24.0833 38.6559 24.2295 38.5091C24.3756 38.3622 24.4914 38.1879 24.57 37.9962C24.6487 37.8045 24.6887 37.5992 24.6878 37.3919ZM23.1051 34.3043C23.4152 34.3067 23.719 34.2172 23.9783 34.0471C24.2377 33.877 24.4408 33.6339 24.5623 33.3485C24.6837 33.0631 24.7179 32.7481 24.6607 32.4433C24.6034 32.1385 24.4572 31.8574 24.2405 31.6355C24.0238 31.4137 23.7463 31.261 23.4429 31.1966C23.1396 31.1323 22.824 31.1592 22.5359 31.274C22.2478 31.3888 22.0002 31.5863 21.8241 31.8417C21.6481 32.097 21.5516 32.3988 21.5468 32.7089C21.5428 33.1269 21.7045 33.5295 21.9966 33.8285C22.2886 34.1275 22.6872 34.2986 23.1051 34.3043V34.3043ZM61.1751 47.3372L63.5526 49.7221L64.5562 48.7196L62.1339 46.2872L61.1751 47.3372ZM38.3046 62.2029C37.8787 61.8746 37.7445 61.5246 37.9411 61.1176C38.1608 60.6672 38.5867 60.6699 39.0261 60.7527L39.0831 60.617L37.8177 59.1681L37.5885 59.3581C37.7418 59.7773 37.6929 60.1462 37.3173 60.3945C36.8914 60.6658 36.5347 60.4501 36.1943 60.1503C36.1672 61.0131 37.3362 62.1866 38.3046 62.2029ZM36.8127 56.4373C37.1111 55.8947 37.0487 54.4838 36.7978 54.1975C36.5266 54.401 36.2865 54.6995 35.9922 54.7714C35.5121 54.888 35.2734 54.4824 35.0944 54.0714C34.6997 54.7497 34.7512 56.1578 35.1907 56.6489C35.1106 56.1456 35.2096 55.7468 35.7223 55.5813C36.159 55.4483 36.4059 55.6464 36.8127 56.4373ZM41.9217 61.4717L41.9014 61.5965C42.4059 61.7321 42.8711 61.9193 42.7884 62.5637C42.7314 63.0128 42.4425 63.1796 41.7169 63.2108C42.2432 63.6178 43.6686 63.6585 44.1039 63.3601C43.8761 63.0725 43.5235 62.8174 43.4448 62.4877C43.3092 61.9451 43.8151 61.7565 44.2585 61.6046L44.2179 61.4689L41.9217 61.4717Z" fill="black"></path>
        <path d="M45.5251 60.6031C44.8142 60.104 43.9702 59.8291 43.1017 59.8138C42.2332 59.7986 41.3801 60.0437 40.6521 60.5177C40.079 59.2777 39.0806 58.2843 37.8379 57.7176C38.8442 56.5116 38.5038 55.1116 38.3885 53.6695C39.0951 53.6695 39.8302 53.6627 40.5667 53.6776C40.6807 53.7011 40.7837 53.7617 40.8596 53.8499C42.5911 55.581 44.3208 57.3143 46.0486 59.0498C46.0714 59.0822 46.0893 59.1179 46.1015 59.1556C45.7258 59.5422 45.22 59.8828 45.5251 60.6031Z" fill="white"></path>
        <path d="M30.5742 30.7054C30.5742 29.2493 30.5742 27.7942 30.5742 26.3399C30.5742 25.6195 30.8278 25.3672 31.5534 25.3672C34.463 25.3672 37.3727 25.3672 40.2823 25.3672C41.0146 25.3672 41.2628 25.6087 41.2628 26.3331C41.2628 29.2606 41.2628 32.1882 41.2628 35.1158C41.2628 35.8144 41.0146 36.0586 40.3135 36.0654C37.3867 36.0654 34.4599 36.0654 31.5331 36.0654C30.8156 36.0654 30.5756 35.8103 30.5742 35.0764C30.5742 33.6176 30.5742 32.1606 30.5742 30.7054ZM39.7059 34.5039V26.9069H32.1258V34.5039H39.7059Z" fill="black"></path>
        <path d="M35.9083 39.3873C34.4879 39.3873 33.0679 39.3873 31.6483 39.3873C31.0109 39.3873 30.6691 39.116 30.6759 38.6154C30.6827 38.1149 31.0244 37.8666 31.67 37.8652H40.2903C40.9291 37.8652 41.2668 38.1366 41.2614 38.6371C41.256 39.1377 40.9183 39.386 40.27 39.3873C38.8161 39.3892 37.3622 39.3892 35.9083 39.3873Z" fill="black"></path>
        <path d="M35.9607 16.3816C37.0254 16.3816 38.09 16.3667 39.1533 16.3816C39.8057 16.3952 40.1936 16.9962 39.8586 17.4886C39.7745 17.5981 39.6687 17.689 39.5478 17.7555C39.4269 17.822 39.2935 17.8628 39.1561 17.8753C37.0118 17.9051 34.8662 17.901 32.7206 17.8888C32.1781 17.8888 31.8906 17.5931 31.8906 17.1373C31.8906 16.6814 32.1985 16.383 32.7695 16.3776C33.8287 16.3735 34.8974 16.3816 35.9607 16.3816Z" fill="black"></path>
        <path d="M35.9222 48.4172C34.8915 48.4172 33.8607 48.4172 32.83 48.4172C32.2292 48.4172 31.8942 48.1459 31.8887 47.663C31.8833 47.18 32.2102 46.8978 32.8096 46.8965C34.8892 46.8965 36.9688 46.8965 39.0484 46.8965C39.6411 46.8965 39.9788 47.1868 39.9693 47.6657C39.9598 48.1446 39.6126 48.4145 39.0199 48.4172C37.9851 48.42 36.9476 48.4172 35.9222 48.4172Z" fill="black"></path>
        <path d="M33.7014 41.1911C34.4108 41.1911 35.1214 41.183 35.8308 41.1911C36.3597 41.1993 36.6689 41.4828 36.6757 41.9318C36.6825 42.3809 36.3733 42.6997 35.8619 42.7037C34.409 42.7182 32.9555 42.7182 31.5016 42.7037C30.9849 42.7037 30.6756 42.3795 30.6878 41.9305C30.7001 41.4814 31.0039 41.1993 31.5328 41.1911C32.2475 41.183 32.9745 41.1911 33.7014 41.1911Z" fill="black"></path>
      </g>
    </g>
    <defs>
      <clipPath id="clip0_3605_667">
        <rect width="72" height="72" fill="white" transform="translate(0.5)"></rect>
      </clipPath>
      <clipPath id="clip1_3605_667">
        <rect width="52" height="52" fill="white" transform="translate(20 14)"></rect>
      </clipPath>
    </defs>
  </symbol>
  <symbol fill="none" xmlns="http://www.w3.org/2000/svg" viewBox="0 0 73 72" id="awareness">
    <g clip-path="url(#clip0_3591_592)">
      <path fill-rule="evenodd" clip-rule="evenodd" d="M14.7599 16.3467C18.891 10.7632 24.822 7.58019 31.5467 5.8314C39.786 3.68875 48.6047 1.15216 55.8263 5.66724C64.7922 11.2729 73.4231 20.6471 71.9871 31.1156C70.5861 41.3286 57.948 44.0953 49.7056 50.2866C40.3624 57.3047 33.215 71.8051 21.9394 68.7086C10.6222 65.6008 8.86945 50.2567 7.27593 38.6347C6.15556 30.4636 9.85584 22.9748 14.7599 16.3467Z" fill="#BACFED"></path>
      <g clip-path="url(#clip1_3591_592)">
        <path d="M32.0113 45.3482C30.5555 44.3911 29.5101 43.245 28.7856 41.8085C28.0611 40.3721 27.8214 38.8648 27.8503 37.2991C26.8118 37.0088 26.8435 36.9893 26.7911 35.896C26.6644 33.3204 27.2773 30.9893 28.882 28.9499C31.3612 25.7978 35.3983 24.4697 39.1792 25.5672C42.9256 26.655 45.7492 30.0044 46.1679 33.9219C46.2588 34.7555 46.2203 35.6196 46.2051 36.4684C46.1968 36.9588 45.9586 37.1255 45.1721 37.2644C45.19 38.837 44.9558 40.379 44.23 41.8099C43.4951 43.2595 42.3822 44.4795 41.0111 45.3385C41.7617 45.3802 42.3884 45.3566 43 45.4608C46.2698 46.0165 48.4915 48.5685 48.5452 51.9012C48.5935 54.9575 48.5604 58.004 48.5535 61.0547C48.5535 61.7243 48.2588 61.9925 47.5384 61.9952C45.4724 62.0022 43.4159 61.9952 41.354 61.9952H25.7347C24.6328 61.9952 24.4592 61.8146 24.4592 60.688C24.4592 57.8095 24.4455 54.9325 24.4592 52.054C24.4799 48.624 26.7126 45.9915 30.0624 45.4469C30.6505 45.3538 31.2634 45.3844 32.0113 45.3482ZM46.9778 60.4074C46.9902 60.2782 47.0081 60.1781 47.0081 60.0781C47.0081 57.358 47.0178 54.6366 46.9998 51.9165C46.9982 51.4658 46.9328 51.0177 46.8056 50.5856C46.0123 47.9378 43.7754 46.6958 41.0538 46.9556C41.0064 46.9648 40.9614 46.9838 40.9216 47.0113C40.8818 47.0387 40.848 47.0742 40.8224 47.1153C40.0152 48.5143 38.7012 49.1297 37.204 49.2936C35.1903 49.5117 33.4273 48.9699 32.2207 47.1709C32.1797 47.1127 32.1272 47.0636 32.0666 47.0268C32.0059 46.99 31.9383 46.9662 31.8681 46.957C31.2855 46.957 30.6905 46.9236 30.1216 47.025C27.6823 47.4599 26.0294 49.4659 26.0102 52.0082C25.9909 54.6768 26.0102 57.3455 26.0102 60.0142C26.0102 60.1323 26.0267 60.2504 26.0377 60.3976H30.0142V58.9584C30.0142 57.4858 30.0142 56.0119 30.0142 54.5393C30.0142 53.967 30.302 53.6266 30.7676 53.6169C31.2552 53.6058 31.5472 53.9517 31.5582 54.556C31.5582 54.7644 31.5582 54.9727 31.5582 55.1797V60.4074H41.4559V59.8197C41.4559 58.0693 41.4559 56.3189 41.4559 54.5685C41.4559 53.96 41.7493 53.6141 42.2369 53.6183C42.7245 53.6224 42.9986 53.9711 43 54.5907C43 56.3411 43 58.0915 43 59.8406V60.4074H46.9778ZM29.4343 37.3005C29.4233 37.4464 29.404 37.5631 29.4054 37.6812C29.4384 40.686 30.7593 42.9088 33.3997 44.323C34.138 44.7203 34.2069 44.9232 33.8019 45.6553C33.4493 46.2929 33.4906 46.5069 34.0554 46.9597C35.4327 48.0711 37.6172 48.0711 38.9808 46.9431C39.1852 46.7633 39.3499 46.5423 39.4643 46.2943C39.4856 46.2171 39.4883 46.1358 39.4723 46.0573C39.4562 45.9788 39.4218 45.9053 39.372 45.8428C38.7522 45.1885 38.821 44.7398 39.6158 44.3341C40.8981 43.6985 41.9626 42.6905 42.6724 41.4398C43.3822 40.1892 43.705 38.7529 43.5991 37.3158C40.6529 36.9838 39.1144 36.3308 36.806 34.4179C36.558 34.2123 36.4258 34.279 36.1999 34.4415C35.4666 35.0095 34.7049 35.539 33.9176 36.028C32.543 36.831 31.0307 37.2074 29.4343 37.3005ZM44.6666 35.6793C44.8043 32.2243 43.4614 29.582 40.5772 27.8858C37.693 26.1896 34.7385 26.2854 31.9728 28.1803C29.3985 29.9446 28.1726 32.4605 28.3668 35.771C29.1933 35.6974 29.9756 35.6918 30.7387 35.5473C32.7276 35.1681 34.3542 34.0984 35.7977 32.7119C36.3487 32.1882 36.6421 32.2174 37.2137 32.6911C37.9685 33.3149 38.7191 33.9608 39.5455 34.4762C41.0715 35.4428 42.8743 35.8663 44.6666 35.6793V35.6793Z" fill="black"></path>
        <path d="M53.4029 34.5582C53.352 38.4549 52.4388 41.5973 50.56 44.448C50.3231 44.8078 50.0532 45.0759 49.5959 44.962C49.0284 44.8231 48.8659 44.2104 49.2502 43.6256C50.1397 42.2853 50.8172 40.8137 51.2584 39.2634C53.7789 30.3586 48.0422 21.2439 38.9667 19.7311C30.5318 18.3252 22.4673 24.3294 21.3365 32.8522C20.8227 36.7198 21.6353 40.2804 23.7193 43.5617C23.8885 43.8457 23.9552 44.1799 23.908 44.5077C23.8736 44.6967 23.5182 44.9551 23.3116 44.9509C23.1651 44.9393 23.0224 44.8978 22.8922 44.8291C22.762 44.7603 22.647 44.6656 22.5541 44.5508C21.5749 43.1455 20.8305 41.5879 20.3503 39.94C19.6929 37.7405 19.483 35.4297 19.7331 33.1464C19.9833 30.863 20.6884 28.6542 21.806 26.6526C22.9237 24.6509 24.4308 22.8977 26.237 21.4982C28.0433 20.0987 30.1112 19.0818 32.3168 18.5086C41.7986 16.0288 51.4815 22.3233 53.1219 32.0479C53.2845 33.0411 53.3464 34.04 53.4029 34.5582Z" fill="black"></path>
        <path d="M11.0027 33.0399C11.4159 24.506 16.1127 16.718 25.3741 11.8446C27.3024 10.8305 29.3685 10.1887 31.4979 9.75109C32.0998 9.62745 32.4992 9.82333 32.5998 10.2901C32.7141 10.7944 32.4372 11.1514 31.8119 11.282C26.8176 12.3198 22.5491 14.6925 19.0603 18.4379C15.391 22.3763 13.1968 27.0413 12.6817 32.4314C11.9145 40.4597 14.5191 47.246 20.2916 52.8085C20.888 53.3836 21.0023 53.8226 20.6277 54.2102C20.2531 54.5978 19.8481 54.5158 19.2503 53.9657C13.9612 49.0576 10.8966 42.0281 11.0027 33.0399Z" fill="black"></path>
        <path d="M62.0726 34.1761C61.9045 42.5809 59.1195 48.9699 53.5894 54.1225C53.1431 54.5393 52.6968 54.5573 52.369 54.1989C52.0412 53.8405 52.1129 53.382 52.5867 52.9486C56.5273 49.288 59.1112 44.8314 60.0561 39.5052C61.3853 32.0034 59.6429 25.256 54.7891 19.406C51.2203 15.0994 46.6378 12.4196 41.1779 11.2888C40.6201 11.1735 40.3612 10.8831 40.3887 10.4344C40.4218 9.90235 40.8722 9.58144 41.4906 9.76482C43.2467 10.2913 45.0717 10.69 46.7246 11.4499C54.4447 14.9813 59.3729 20.955 61.366 29.2903C61.8095 31.1435 61.9197 33.08 62.0726 34.1761Z" fill="black"></path>
        <path d="M37.5355 10.0358C37.536 10.242 37.4755 10.4436 37.3618 10.6149C37.2481 10.7862 37.0863 10.9194 36.8972 10.9974C36.708 11.0755 36.5001 11.0949 36.2999 11.0532C36.0998 11.0114 35.9165 10.9105 35.7736 10.7631C35.6306 10.6158 35.5345 10.4288 35.4975 10.2261C35.4604 10.0233 35.4842 9.81406 35.5657 9.62502C35.6472 9.43598 35.7828 9.27574 35.955 9.16481C36.1273 9.05387 36.3284 8.99728 36.5328 9.00225C36.7995 9.01185 37.0523 9.1245 37.239 9.31689C37.4256 9.50928 37.5318 9.76669 37.5355 10.0358V10.0358Z" fill="black"></path>
      </g>
    </g>
    <defs>
      <clipPath id="clip0_3591_592">
        <rect width="72" height="72" fill="white" transform="translate(0.5)"></rect>
      </clipPath>
      <clipPath id="clip1_3591_592">
        <rect width="51.0727" height="53" fill="white" transform="translate(11 9)"></rect>
      </clipPath>
    </defs>
  </symbol>
  <symbol fill="none" xmlns="http://www.w3.org/2000/svg" viewBox="0 0 73 72" id="concentration">
    <g clip-path="url(#clip0_3591_509)">
      <path fill-rule="evenodd" clip-rule="evenodd" d="M14.7599 16.3467C18.891 10.7632 24.822 7.58019 31.5467 5.8314C39.786 3.68875 48.6047 1.15216 55.8263 5.66724C64.7922 11.2729 73.4231 20.6471 71.9871 31.1156C70.5861 41.3286 57.948 44.0953 49.7056 50.2866C40.3624 57.3047 33.215 71.8051 21.9394 68.7086C10.6222 65.6008 8.86945 50.2567 7.27593 38.6347C6.15556 30.4636 9.85584 22.9748 14.7599 16.3467Z" fill="#BACFED"></path>
      <g clip-path="url(#clip1_3591_509)">
        <path d="M36.175 63.0005C35.7444 62.6659 35.626 62.2236 35.6432 61.6877C35.6744 60.7095 35.6518 59.728 35.6518 58.7175C29.5874 58.3818 24.3722 56.1789 20.1042 51.911C15.8363 47.6431 13.6243 42.4281 13.3024 36.3609H10.4414C10.2444 36.3609 10.0463 36.3706 9.8504 36.3555C9.34126 36.3179 8.99682 35.9638 9.00005 35.4946C8.99885 35.3819 9.0204 35.2701 9.06343 35.1658C9.10646 35.0616 9.17008 34.9672 9.25047 34.8881C9.33086 34.809 9.42639 34.747 9.53132 34.7057C9.63625 34.6644 9.74844 34.6447 9.86117 34.6477C10.774 34.6283 11.6911 34.6413 12.6006 34.6413H13.2992C13.6221 28.6074 15.8255 23.3914 20.087 19.1234C24.3485 14.8555 29.5648 12.6354 35.6378 12.3018V9.44686C35.6378 9.24993 35.6292 9.05299 35.6378 8.85714C35.6744 8.3449 36.0232 7.99623 36.4925 7.99623C36.6052 7.99418 36.7172 8.0149 36.8217 8.05714C36.9262 8.09938 37.0211 8.16228 37.1007 8.24206C37.1803 8.32184 37.2429 8.41688 37.2849 8.52146C37.3269 8.62604 37.3474 8.73801 37.345 8.85068C37.3666 9.69222 37.3526 10.5338 37.3526 11.3753V12.2932C43.3804 12.6161 48.5988 14.8081 52.8711 19.0642C57.1433 23.3203 59.3683 28.5342 59.7116 34.6348C60.7256 34.6348 61.7385 34.6585 62.7503 34.624C63.2756 34.6068 63.6922 34.7316 63.9957 35.1718V35.8175C63.6911 36.2479 63.2756 36.3814 62.7503 36.3641C61.7385 36.3308 60.7245 36.3545 59.7116 36.3545C59.3736 42.4486 57.1638 47.6538 52.8915 51.9239C48.6193 56.194 43.4095 58.3807 37.3665 58.7175C37.3665 59.7829 37.3461 60.8009 37.3752 61.8168C37.3892 62.3269 37.2492 62.7197 36.8154 63.0005H36.175ZM57.9614 36.3889H45.5257C45.6925 36.5686 45.8056 36.6988 45.9272 36.8193C47.6186 38.5225 49.31 40.2242 51.0014 41.9245C51.1465 42.0574 51.2774 42.2049 51.3921 42.3646C51.5046 42.5195 51.5563 42.7102 51.5374 42.9006C51.5186 43.091 51.4305 43.2679 51.2899 43.3977C50.9798 43.7206 50.5999 43.7615 50.2134 43.5236C50.0672 43.4205 49.9332 43.301 49.8141 43.1674C47.5493 40.9025 45.2846 38.6366 43.0198 36.3695C42.3395 35.6894 42.3385 35.3343 43.0112 34.6606C45.2774 32.3943 47.5436 30.1283 49.8098 27.8627C49.9172 27.7416 50.0382 27.6332 50.1704 27.5399C50.531 27.3246 50.9002 27.3386 51.208 27.627C51.5363 27.9337 51.574 28.3158 51.3469 28.7032C51.2455 28.8505 51.127 28.9852 50.9938 29.1046C49.3147 30.7926 47.6347 32.4786 45.9541 34.1624C45.8239 34.2926 45.699 34.4282 45.5236 34.61H57.9496C57.6073 23.4473 48.2942 14.3583 37.4053 14.0721V26.5886C39.1276 24.8409 40.7314 23.2074 42.3395 21.5759C42.6162 21.2951 42.8874 21.0077 43.1824 20.7473C43.3397 20.5967 43.5491 20.5126 43.7669 20.5126C43.9847 20.5126 44.1941 20.5967 44.3513 20.7473C44.6936 21.0702 44.7119 21.563 44.3933 21.9558C44.3255 22.0387 44.2437 22.1108 44.1684 22.1872C41.9029 24.4521 39.6367 26.7177 37.3698 28.984C36.6916 29.662 36.3332 29.6631 35.6583 28.984C33.39 26.7184 31.1241 24.4521 28.8608 22.185C28.7393 22.0781 28.6309 21.957 28.5379 21.8245C28.3226 21.4629 28.3366 21.0949 28.6272 20.7861C28.9351 20.4632 29.3172 20.4223 29.7036 20.6505C29.8503 20.7526 29.9844 20.8718 30.103 21.0056C31.7886 22.6879 33.475 24.3703 35.1621 26.0526C35.2923 26.1829 35.4333 26.3034 35.6034 26.4583V14.0559C23.6101 14.5305 15.1722 24.6709 15.1022 34.5993H27.5702C26.5734 33.6243 25.6746 32.7569 24.7877 31.8767C23.7963 30.8931 22.7953 29.917 21.848 28.8926C21.7421 28.7606 21.6654 28.6076 21.6229 28.4438C21.5804 28.2801 21.5731 28.1091 21.6015 27.9423C21.6564 27.7099 22.0321 27.4312 22.2926 27.4043C22.5531 27.3774 22.9083 27.5775 23.1171 27.7831C25.4238 30.0591 27.7112 32.3555 30.0007 34.6477C30.6466 35.2934 30.6466 35.6679 30.0007 36.32C27.7101 38.6158 25.4185 40.9072 23.1257 43.1943C23.027 43.2987 22.9189 43.3938 22.8028 43.4784C22.425 43.7335 22.0493 43.7044 21.7264 43.3913C21.3873 43.0588 21.3658 42.6638 21.6414 42.2732C21.7405 42.1464 21.8503 42.0283 21.9697 41.9202C23.6653 40.2235 25.361 38.5264 27.0567 36.829C27.187 36.6999 27.3097 36.5654 27.4744 36.3986H15.0527C15.5284 48.3436 25.5379 56.7859 35.5894 56.9301V44.4136C33.9199 46.1096 32.3602 47.6926 30.8059 49.2723C30.4668 49.6167 30.1363 49.974 29.7661 50.2817C29.3958 50.5895 28.9997 50.5626 28.6434 50.2484C28.3065 49.9535 28.2828 49.4596 28.5723 49.0851C28.6649 48.9762 28.7641 48.873 28.8694 48.7762C31.1098 46.535 33.3508 44.2942 35.5926 42.0536C36.3214 41.3251 36.6518 41.324 37.3784 42.0536C39.6188 44.292 41.858 46.5318 44.0962 48.773C44.2157 48.8801 44.3239 48.9991 44.4192 49.1281C44.6721 49.522 44.6592 49.9212 44.3115 50.2484C43.9886 50.5572 43.6022 50.5626 43.2351 50.3151C43.1069 50.2192 42.9883 50.1111 42.881 49.9923L37.8219 44.9431C37.6927 44.8139 37.5528 44.6945 37.3773 44.533V56.9462C47.9713 56.6998 57.5341 47.9078 57.9614 36.3889Z" fill="black"></path>
      </g>
    </g>
    <defs>
      <clipPath id="clip0_3591_509">
        <rect width="72" height="72" fill="white" transform="translate(0.5)"></rect>
      </clipPath>
      <clipPath id="clip1_3591_509">
        <rect width="55" height="55" fill="white" transform="translate(9 8)"></rect>
      </clipPath>
    </defs>
  </symbol>
</svg>